<mxfile host="Electron" modified="2024-05-06T02:21:47.002Z" agent="Mozilla/5.0 (Windows NT 10.0; Win64; x64) AppleWebKit/537.36 (KHTML, like Gecko) draw.io/24.2.5 Chrome/120.0.6099.109 Electron/28.1.0 Safari/537.36" etag="6DxoEQaQ5uQyFXgWZJ8E" version="24.2.5" type="device">
  <diagram name="Page-1" id="ygPattPglabLzfO5Requ">
    <mxGraphModel dx="1674" dy="884" grid="1" gridSize="10" guides="1" tooltips="1" connect="1" arrows="1" fold="1" page="1" pageScale="0.7" pageWidth="827" pageHeight="1169" math="0" shadow="0">
      <root>
        <mxCell id="0" />
        <mxCell id="1" parent="0" />
        <mxCell id="02bx5hGsh96bysY1KJjp-1" value="&lt;u&gt;:User&lt;/u&gt;" style="shape=umlActor;verticalLabelPosition=bottom;verticalAlign=top;html=1;" parent="1" vertex="1">
          <mxGeometry x="14" y="205" width="30" height="60" as="geometry" />
        </mxCell>
        <mxCell id="02bx5hGsh96bysY1KJjp-4" value="&lt;u&gt;:GeneralShape&lt;/u&gt;" style="swimlane;fontStyle=1;align=center;verticalAlign=middle;childLayout=stackLayout;horizontal=1;startSize=29;horizontalStack=0;resizeParent=1;resizeParentMax=0;resizeLast=0;collapsible=0;marginBottom=0;html=1;whiteSpace=wrap;" parent="1" vertex="1">
          <mxGeometry x="304" y="390" width="140" height="30" as="geometry" />
        </mxCell>
        <mxCell id="02bx5hGsh96bysY1KJjp-7" value="" style="endArrow=none;startArrow=none;endFill=0;startFill=0;endSize=8;html=1;verticalAlign=bottom;labelBackgroundColor=none;strokeWidth=3;rounded=0;" parent="1" source="02bx5hGsh96bysY1KJjp-1" target="02bx5hGsh96bysY1KJjp-20" edge="1">
          <mxGeometry width="160" relative="1" as="geometry">
            <mxPoint x="54" y="340" as="sourcePoint" />
            <mxPoint x="214" y="340" as="targetPoint" />
          </mxGeometry>
        </mxCell>
        <mxCell id="02bx5hGsh96bysY1KJjp-8" value="&lt;u&gt;Oval1:Oval&lt;/u&gt;" style="swimlane;fontStyle=1;align=center;verticalAlign=middle;childLayout=stackLayout;horizontal=1;startSize=29;horizontalStack=0;resizeParent=1;resizeParentMax=0;resizeLast=0;collapsible=0;marginBottom=0;html=1;whiteSpace=wrap;" parent="1" vertex="1">
          <mxGeometry x="184" y="560" width="140" height="120" as="geometry" />
        </mxCell>
        <mxCell id="02bx5hGsh96bysY1KJjp-9" value="x = x1&lt;div&gt;y = y1&lt;/div&gt;&lt;div&gt;width = w1&lt;/div&gt;&lt;div&gt;height = h1&lt;/div&gt;" style="text;html=1;strokeColor=none;fillColor=none;align=center;verticalAlign=middle;spacingLeft=4;spacingRight=4;overflow=hidden;rotatable=0;points=[[0,0.5],[1,0.5]];portConstraint=eastwest;whiteSpace=wrap;" parent="02bx5hGsh96bysY1KJjp-8" vertex="1">
          <mxGeometry y="29" width="140" height="91" as="geometry" />
        </mxCell>
        <mxCell id="02bx5hGsh96bysY1KJjp-11" value="&lt;u&gt;Oval2:Oval&lt;/u&gt;" style="swimlane;fontStyle=1;align=center;verticalAlign=middle;childLayout=stackLayout;horizontal=1;startSize=29;horizontalStack=0;resizeParent=1;resizeParentMax=0;resizeLast=0;collapsible=0;marginBottom=0;html=1;whiteSpace=wrap;" parent="1" vertex="1">
          <mxGeometry x="424" y="560" width="140" height="120" as="geometry" />
        </mxCell>
        <mxCell id="02bx5hGsh96bysY1KJjp-12" value="x = x2&lt;div&gt;y = y2&lt;/div&gt;&lt;div&gt;width = w2&lt;/div&gt;&lt;div&gt;height = h2&lt;/div&gt;" style="text;html=1;strokeColor=none;fillColor=none;align=center;verticalAlign=middle;spacingLeft=4;spacingRight=4;overflow=hidden;rotatable=0;points=[[0,0.5],[1,0.5]];portConstraint=eastwest;whiteSpace=wrap;" parent="02bx5hGsh96bysY1KJjp-11" vertex="1">
          <mxGeometry y="29" width="140" height="91" as="geometry" />
        </mxCell>
        <mxCell id="02bx5hGsh96bysY1KJjp-15" value="" style="endArrow=none;startArrow=none;endFill=0;startFill=0;endSize=8;html=1;verticalAlign=bottom;labelBackgroundColor=none;strokeWidth=3;rounded=0;" parent="1" source="02bx5hGsh96bysY1KJjp-8" target="02bx5hGsh96bysY1KJjp-4" edge="1">
          <mxGeometry width="160" relative="1" as="geometry">
            <mxPoint x="44" y="361" as="sourcePoint" />
            <mxPoint x="234" y="367" as="targetPoint" />
          </mxGeometry>
        </mxCell>
        <mxCell id="02bx5hGsh96bysY1KJjp-16" value="" style="endArrow=none;startArrow=none;endFill=0;startFill=0;endSize=8;html=1;verticalAlign=bottom;labelBackgroundColor=none;strokeWidth=3;rounded=0;" parent="1" source="02bx5hGsh96bysY1KJjp-11" target="02bx5hGsh96bysY1KJjp-4" edge="1">
          <mxGeometry width="160" relative="1" as="geometry">
            <mxPoint x="237" y="490" as="sourcePoint" />
            <mxPoint x="282" y="409" as="targetPoint" />
          </mxGeometry>
        </mxCell>
        <mxCell id="02bx5hGsh96bysY1KJjp-17" value="1: selectShape(x3, y3)" style="html=1;verticalAlign=bottom;labelBackgroundColor=none;endArrow=open;endFill=0;rounded=0;" parent="1" edge="1">
          <mxGeometry width="160" relative="1" as="geometry">
            <mxPoint x="54" y="205" as="sourcePoint" />
            <mxPoint x="294" y="205" as="targetPoint" />
            <mxPoint as="offset" />
          </mxGeometry>
        </mxCell>
        <mxCell id="02bx5hGsh96bysY1KJjp-18" value="2.1.1: resize(x4, y4)" style="html=1;verticalAlign=bottom;labelBackgroundColor=none;endArrow=open;endFill=0;rounded=0;" parent="1" edge="1">
          <mxGeometry x="0.5294" y="-51" width="160" relative="1" as="geometry">
            <mxPoint x="334" y="440" as="sourcePoint" />
            <mxPoint x="274" y="540" as="targetPoint" />
            <mxPoint as="offset" />
          </mxGeometry>
        </mxCell>
        <mxCell id="02bx5hGsh96bysY1KJjp-19" value="2.1.2: resize(x4, y4)" style="html=1;verticalAlign=bottom;labelBackgroundColor=none;endArrow=open;endFill=0;rounded=0;" parent="1" edge="1">
          <mxGeometry x="0.4412" y="43" width="160" relative="1" as="geometry">
            <mxPoint x="414" y="440" as="sourcePoint" />
            <mxPoint x="474" y="540" as="targetPoint" />
            <mxPoint as="offset" />
          </mxGeometry>
        </mxCell>
        <mxCell id="02bx5hGsh96bysY1KJjp-20" value="&lt;u&gt;:Panel&lt;/u&gt;" style="swimlane;fontStyle=1;align=center;verticalAlign=middle;childLayout=stackLayout;horizontal=1;startSize=70;horizontalStack=0;resizeParent=1;resizeParentMax=0;resizeLast=0;collapsible=0;marginBottom=0;html=1;whiteSpace=wrap;" parent="1" vertex="1">
          <mxGeometry x="304" y="200" width="140" height="70" as="geometry" />
        </mxCell>
        <mxCell id="02bx5hGsh96bysY1KJjp-21" value="" style="endArrow=none;startArrow=none;endFill=0;startFill=0;endSize=8;html=1;verticalAlign=bottom;labelBackgroundColor=none;strokeWidth=3;rounded=0;" parent="1" source="02bx5hGsh96bysY1KJjp-20" target="02bx5hGsh96bysY1KJjp-4" edge="1">
          <mxGeometry width="160" relative="1" as="geometry">
            <mxPoint x="424" y="290" as="sourcePoint" />
            <mxPoint x="634" y="290" as="targetPoint" />
          </mxGeometry>
        </mxCell>
        <mxCell id="02bx5hGsh96bysY1KJjp-22" value="1.1: check = contains(x3, y3)" style="html=1;verticalAlign=bottom;labelBackgroundColor=none;endArrow=open;endFill=0;rounded=0;" parent="1" edge="1">
          <mxGeometry x="0.2" y="-80" width="160" relative="1" as="geometry">
            <mxPoint x="364" y="280" as="sourcePoint" />
            <mxPoint x="364" y="380" as="targetPoint" />
            <mxPoint as="offset" />
          </mxGeometry>
        </mxCell>
        <mxCell id="02bx5hGsh96bysY1KJjp-23" value="selectedShape" style="html=1;verticalAlign=bottom;startArrow=oval;startFill=1;endArrow=block;startSize=8;curved=0;rounded=0;" parent="1" edge="1">
          <mxGeometry x="1" y="41" width="60" relative="1" as="geometry">
            <mxPoint x="234" y="220" as="sourcePoint" />
            <mxPoint x="164" y="220" as="targetPoint" />
            <mxPoint x="-40" y="-31" as="offset" />
          </mxGeometry>
        </mxCell>
        <mxCell id="02bx5hGsh96bysY1KJjp-24" value="2: resize(x4, y4)" style="html=1;verticalAlign=bottom;labelBackgroundColor=none;endArrow=open;endFill=0;rounded=0;" parent="1" edge="1">
          <mxGeometry width="160" relative="1" as="geometry">
            <mxPoint x="54" y="270" as="sourcePoint" />
            <mxPoint x="294" y="270" as="targetPoint" />
            <mxPoint as="offset" />
          </mxGeometry>
        </mxCell>
        <mxCell id="02bx5hGsh96bysY1KJjp-25" value="2.1: resize(x4, y4)" style="html=1;verticalAlign=bottom;labelBackgroundColor=none;endArrow=open;endFill=0;rounded=0;" parent="1" edge="1">
          <mxGeometry x="0.2" y="50" width="160" relative="1" as="geometry">
            <mxPoint x="384" y="280" as="sourcePoint" />
            <mxPoint x="384" y="380" as="targetPoint" />
            <mxPoint as="offset" />
          </mxGeometry>
        </mxCell>
        <mxCell id="zME4gdBqckHG-3SlVfI1-1" value="4 – Diagramme d’objets/communication" style="text;html=1;align=center;verticalAlign=middle;resizable=0;points=[];autosize=1;strokeColor=none;fillColor=none;" parent="1" vertex="1">
          <mxGeometry x="49" y="110" width="230" height="30" as="geometry" />
        </mxCell>
      </root>
    </mxGraphModel>
  </diagram>
</mxfile>
